<?xml version="1.0" standalone="no"?>
<!DOCTYPE svg PUBLIC "-//W3C//DTD SVG 20010904//EN"
"http://www.w3.org/TR/2001/REC-SVG-20010904/DTD/svg10.dtd">
<svg xmlns="http://www.w3.org/2000/svg" xmlns:xlink="http://www.w3.org/1999/xlink"
    width="20.99cm" height="23.00cm" viewBox="0 0 595 652 ">
<title>SVG Picture created as pov.svg </title>
<desc>Picture generated by wxSVG v0100 </desc>
<g style="fill:black; stroke:black; stroke-width:1">
</g>
<g style="fill:#FFFFFF; fill-opacity:1.00; stroke:#FFFFFF; stroke-opacity:1.00; stroke-linecap:round; stroke-linejoin:round; stroke-width:1" 
   transform="translate(0.00 0.00) scale(1.00 1.00)">
 <rect x="0" y="0" width="595" height="652" rx="0.00"  /> 
</g>
<g style="fill:#FFFFD4; fill-opacity:1.00; stroke:#BFBF9F; stroke-opacity:1.00; stroke-linecap:round; stroke-linejoin:round; stroke-width:1" 
   transform="translate(0.00 0.00) scale(1.00 1.00)">
<polygon style="fill-rule:evenodd; " 
points="428,461
413,462
413,459
397,459
396,454
393,451
390,440
389,439
391,439
400,439
418,439
426,454
428,461
" /> 
<polygon style="fill-rule:evenodd; " 
points="389,100
388,101
383,111
380,121
377,130
370,128
355,131
351,132
336,132
336,129
334,122
331,117
335,115
339,114
348,113
348,106
348,102
349,97
350,96
353,93
362,90
366,89
376,87
381,85
387,83
389,83
395,84
393,91
389,100
" /> 
<polygon style="fill-rule:evenodd; " 
points="196,259
193,261
193,264
191,264
184,265
183,264
178,260
175,259
175,248
175,244
175,239
175,239
190,239
194,239
193,240
191,244
194,249
195,250
195,251
198,252
198,254
197,257
196,259
" /> 
<polygon style="fill-rule:evenodd; " 
points="358,180
353,186
346,194
343,194
336,182
338,180
340,173
338,171
336,169
335,167
336,166
337,164
340,164
344,167
345,168
346,169
350,172
354,176
355,177
358,180
" /> 
<polygon style="fill-rule:evenodd; " 
points="405,168
396,179
391,184
386,179
387,179
380,173
386,170
388,167
395,159
403,166
405,168
" /> 
<polygon style="fill-rule:evenodd; " 
points="181,211
180,214
181,218
179,224
168,225
164,224
154,219
167,202
170,198
181,211
" /> 
<polygon style="fill-rule:evenodd; " 
points="325,110
325,112
326,113
331,117
334,122
336,129
336,132
322,132
321,132
309,138
300,140
278,143
272,146
256,151
252,152
251,152
242,153
241,150
240,142
236,128
233,123
230,114
229,112
225,99
215,84
211,72
208,66
207,63
205,59
202,52
202,51
207,48
207,49
213,51
222,51
222,61
230,61
230,84
241,84
241,91
248,91
249,104
249,110
254,110
257,111
263,112
272,111
272,111
272,114
276,112
280,108
282,107
291,107
291,110
325,110
" /> 
<polygon style="fill-rule:evenodd; " 
points="144,306
151,321
153,324
158,325
168,325
172,327
175,330
169,333
158,336
146,340
144,340
140,339
125,339
124,324
123,314
124,303
124,298
124,296
125,281
135,289
137,291
144,306
" /> 
<polygon style="fill-rule:evenodd; " 
points="143,166
147,174
146,181
147,184
150,187
142,185
138,192
136,195
135,197
133,200
131,203
130,205
129,208
125,212
124,214
123,217
119,221
117,227
116,230
117,232
91,221
86,219
85,221
75,243
74,244
72,244
69,244
68,245
65,250
62,251
39,241
31,236
25,236
25,103
32,110
36,118
38,120
45,121
52,121
60,118
66,118
68,119
71,122
73,123
79,125
81,125
82,125
86,121
89,119
91,119
94,121
102,121
106,120
108,120
113,127
124,135
128,141
130,146
138,155
143,165
143,166
" /> 
<polygon style="fill-rule:evenodd; " 
points="430,140
415,140
396,134
386,132
377,130
380,121
383,111
388,101
389,100
397,100
403,98
408,95
416,88
422,85
423,96
425,107
424,110
425,119
428,130
429,134
430,135
429,138
430,140
" /> 
<polygon style="fill-rule:evenodd; " 
points="179,224
179,224
179,226
174,232
175,239
175,239
168,240
167,239
165,235
161,232
158,231
151,225
154,219
164,224
168,225
179,224
" /> 
<polygon style="fill-rule:evenodd; " 
points="176,99
180,102
186,109
190,112
190,113
196,116
197,117
201,120
204,126
207,128
209,129
211,134
211,136
210,140
208,146
210,152
210,154
207,158
201,160
198,163
186,179
174,193
170,198
168,196
165,194
164,194
156,190
150,187
147,184
146,181
147,174
143,166
148,161
148,160
147,153
147,149
150,141
149,137
151,133
151,119
152,112
153,110
154,106
157,101
158,98
157,90
160,89
161,89
164,94
172,97
176,99
" /> 
<polygon style="fill-rule:evenodd; " 
points="430,184
427,188
426,188
414,177
407,171
405,168
408,164
408,156
409,151
409,150
412,148
417,145
427,143
423,149
424,156
425,162
428,167
428,168
430,174
428,178
429,183
429,184
430,184
" /> 
<polygon style="fill-rule:evenodd; " 
points="337,164
336,166
335,167
335,167
330,173
330,167
329,158
336,142
336,140
336,136
336,132
351,132
352,133
352,134
353,138
352,141
352,142
352,144
352,145
363,146
363,147
357,147
355,147
355,152
352,152
351,150
349,149
346,149
346,151
344,154
343,155
342,157
341,160
339,159
337,161
337,164
" /> 
<polygon style="fill-rule:evenodd; " 
points="184,265
184,268
186,271
185,272
184,272
181,275
181,275
178,279
177,280
174,283
171,281
172,273
172,272
172,270
174,269
175,267
175,264
175,262
175,259
178,260
183,264
184,265
" /> 
<polygon style="fill-rule:evenodd; " 
points="336,132
336,136
336,140
336,142
329,158
330,167
327,166
325,164
323,158
321,155
319,152
315,150
310,149
309,147
308,145
310,143
310,140
309,138
321,132
322,132
336,132
" /> 
<polygon style="fill-rule:evenodd; " 
points="447,166
442,171
433,180
430,184
429,184
429,183
428,178
430,174
428,168
428,167
425,162
424,156
423,149
427,143
430,140
436,146
439,148
441,156
446,164
447,166
" /> 
<polygon style="fill-rule:evenodd; " 
points="175,259
175,262
175,264
175,267
174,269
172,270
172,272
172,273
171,281
166,278
154,274
155,270
155,266
153,262
153,262
155,256
155,256
155,252
156,251
162,251
166,251
167,251
168,251
175,248
175,259
" /> 
<polygon style="fill-rule:evenodd; " 
points="493,142
492,139
485,139
462,139
437,140
430,140
429,138
430,135
429,134
428,130
425,119
424,110
425,107
423,96
422,85
431,83
436,84
439,85
446,87
459,90
472,93
476,104
476,105
493,123
500,120
502,119
504,118
505,120
506,120
508,120
513,126
514,127
523,129
524,129
523,131
514,134
497,139
495,140
493,142
" /> 
<polygon style="fill-rule:evenodd; " 
points="144,275
154,274
166,278
171,281
171,281
174,288
167,292
160,299
153,302
147,303
144,306
137,291
135,289
125,281
128,275
130,269
136,272
141,275
144,275
" /> 
<polygon style="fill-rule:evenodd; " 
points="175,239
175,244
175,248
168,251
167,251
166,251
162,251
156,251
150,248
150,247
151,243
151,242
151,240
151,238
150,233
148,231
151,225
158,231
161,232
165,235
167,239
168,240
175,239
" /> 
<polygon style="fill-rule:evenodd; " 
points="366,89
362,90
353,93
350,96
349,97
348,102
348,106
348,113
339,114
335,115
331,117
326,113
325,112
325,110
324,95
325,89
325,85
322,74
324,64
325,64
328,61
337,51
347,50
347,44
348,42
349,42
349,42
350,43
353,46
357,48
363,49
367,52
369,53
373,51
375,52
376,53
377,58
376,63
373,65
368,67
369,71
370,72
371,74
374,75
375,76
374,78
370,84
367,87
366,89
" /> 
<polygon style="fill-rule:evenodd; " 
points="324,186
325,188
327,191
329,196
326,199
324,201
319,204
314,208
308,193
306,188
304,184
304,184
299,174
298,173
304,163
307,168
317,176
317,179
317,185
323,185
324,186
" /> 
<polygon style="fill-rule:evenodd; " 
points="315,213
306,222
307,224
313,232
315,241
315,242
308,239
307,236
307,235
305,231
298,223
297,221
296,221
290,214
294,210
294,209
299,203
300,202
302,201
311,209
315,213
" /> 
<polygon style="fill-rule:evenodd; " 
points="485,181
480,172
477,167
485,162
489,159
491,156
498,152
507,165
508,167
506,169
506,172
504,175
501,176
495,178
485,181
" /> 
<polygon style="fill-rule:evenodd; " 
points="226,211
222,214
222,218
222,230
222,235
222,239
221,240
219,244
218,245
211,253
210,254
210,254
207,249
206,247
210,238
212,235
210,232
207,230
207,226
204,223
203,218
207,213
206,212
208,212
210,211
213,209
225,209
226,211
" /> 
<polygon style="fill-rule:evenodd; " 
points="477,167
470,175
468,177
465,180
457,166
449,171
447,168
447,166
454,160
468,150
472,157
473,160
476,164
477,167
" /> 
<polygon style="fill-rule:evenodd; " 
points="430,140
427,143
417,145
412,148
409,150
409,151
408,156
408,164
405,168
403,166
395,159
398,155
397,153
393,149
392,146
389,143
388,141
388,138
385,136
376,135
377,130
386,132
396,134
415,140
430,140
" /> 
<polygon style="fill-rule:evenodd; " 
points="231,291
220,303
219,303
219,303
214,298
215,297
219,294
218,291
224,285
225,284
228,285
229,283
231,281
230,280
232,278
236,281
236,281
239,282
237,284
231,291
" /> 
<polygon style="fill-rule:evenodd; " 
points="212,189
204,206
205,209
202,209
197,209
188,209
182,209
181,211
170,198
174,193
186,179
198,163
201,160
207,158
207,170
207,176
205,176
206,178
205,181
207,181
208,184
211,185
212,189
" /> 
<polygon style="fill-rule:evenodd; " 
points="395,159
388,167
386,170
380,173
378,171
378,171
375,169
368,166
368,165
369,164
370,161
370,157
372,151
378,152
381,154
383,155
385,155
393,154
394,155
395,159
" /> 
<polygon style="fill-rule:evenodd; " 
points="314,208
316,213
315,213
311,209
302,201
300,202
299,203
294,209
290,206
279,198
274,196
284,185
291,178
298,173
299,174
304,184
304,184
306,188
308,193
314,208
" /> 
<polygon style="fill-rule:evenodd; " 
points="439,199
437,197
431,192
427,188
430,184
433,180
442,171
443,172
443,173
443,173
442,174
438,177
442,180
444,184
445,185
446,189
447,190
446,191
445,192
442,195
441,196
439,199
" /> 
<polygon style="fill-rule:evenodd; " 
points="493,142
498,152
491,156
489,159
485,162
477,167
476,164
473,160
472,157
468,150
462,139
485,139
492,139
493,142
" /> 
<polygon style="fill-rule:evenodd; " 
points="478,223
469,224
471,222
477,217
484,210
486,212
484,213
485,217
482,221
479,221
478,223
478,223
" /> 
<polygon style="fill-rule:evenodd; " 
points="468,150
454,160
447,166
446,164
441,156
439,148
436,146
430,140
437,140
462,139
468,150
" /> 
<polygon style="fill-rule:evenodd; " 
points="410,243
410,243
410,244
413,247
413,252
413,255
413,267
409,267
405,267
401,267
399,267
395,267
392,267
388,267
388,266
388,262
388,260
388,255
389,253
395,243
395,242
399,242
405,243
410,243
" /> 
<polygon style="fill-rule:evenodd; " 
points="330,167
330,173
328,176
325,179
324,186
323,185
317,185
317,179
317,176
307,168
304,163
302,160
299,161
299,160
296,158
296,158
295,157
297,154
300,152
302,152
303,144
303,141
300,140
309,138
310,140
310,143
308,145
309,147
310,149
315,150
319,152
321,155
323,158
325,164
327,166
330,167
" /> 
<polygon style="fill-rule:evenodd; " 
points="305,231
301,236
298,239
297,240
296,241
296,241
296,242
291,247
290,249
287,237
286,234
285,232
281,227
279,225
290,214
296,221
297,221
298,223
305,231
" /> 
<polygon style="fill-rule:evenodd; " 
points="465,180
462,182
458,186
457,186
454,189
447,196
445,197
441,200
441,201
439,199
441,196
442,195
445,192
446,191
447,190
446,189
445,185
444,184
442,180
438,177
442,174
443,173
443,173
443,172
442,171
447,166
447,168
449,171
457,166
465,180
" /> 
<polygon style="fill-rule:evenodd; " 
points="380,173
387,179
386,179
391,184
389,187
386,190
382,194
378,199
372,192
365,186
363,184
363,182
366,175
367,170
367,169
368,166
368,166
375,169
378,171
378,171
380,173
" /> 
<polygon style="fill-rule:evenodd; " 
points="493,287
492,287
486,287
479,291
475,292
473,293
469,296
470,292
473,288
473,288
473,288
479,283
481,281
499,268
500,269
501,270
502,271
503,270
503,268
504,267
506,267
508,268
509,275
507,277
504,278
494,283
491,285
491,285
493,287
" /> 
<polygon style="fill-rule:evenodd; " 
points="388,255
388,260
388,262
388,266
380,266
380,267
378,267
375,272
371,272
364,272
364,263
364,261
364,257
364,252
367,252
369,253
371,253
376,253
380,253
380,255
388,255
388,255
" /> 
<polygon style="fill-rule:evenodd; " 
points="427,188
418,199
413,206
411,207
410,207
397,206
386,206
378,199
382,194
386,190
389,187
391,184
396,179
405,168
407,171
414,177
426,188
427,188
" /> 
<polygon style="fill-rule:evenodd; " 
points="395,159
394,155
393,154
385,155
383,155
381,154
378,152
372,151
372,151
374,143
374,141
376,135
385,136
388,138
388,141
389,143
392,146
393,149
397,153
398,155
395,159
" /> 
<polygon style="fill-rule:evenodd; " 
points="174,283
180,287
184,292
185,295
188,299
190,301
193,304
194,305
200,311
205,316
196,320
178,328
175,330
172,327
168,325
158,325
153,324
151,321
144,306
147,303
153,302
160,299
167,292
174,288
171,281
171,281
174,283
" /> 
<polygon style="fill-rule:evenodd; " 
points="274,383
280,386
278,394
282,394
283,395
283,395
283,398
283,400
286,400
292,396
292,399
271,428
266,435
265,435
266,432
266,431
266,430
262,430
262,428
259,428
257,426
256,423
252,423
247,422
240,419
237,416
239,414
243,411
245,412
247,409
240,401
238,397
238,394
248,394
248,393
255,393
253,388
252,383
249,376
253,374
253,373
256,374
257,373
257,374
257,376
258,380
267,382
271,382
274,383
" /> 
</g>
<g style="fill:#FED98E; fill-opacity:1.00; stroke:#BEA26A; stroke-opacity:1.00; stroke-linecap:round; stroke-linejoin:round; stroke-width:1" 
   transform="translate(0.00 0.00) scale(1.00 1.00)">
<polygon style="fill-rule:evenodd; " 
points="201,239
200,239
194,239
190,239
175,239
174,232
179,226
179,224
179,224
181,218
180,214
181,211
188,216
193,224
198,230
201,239
" /> 
<polygon style="fill-rule:evenodd; " 
points="436,314
435,313
420,314
420,314
416,317
416,317
414,320
406,333
401,334
401,332
401,331
403,330
398,328
397,328
392,328
392,332
386,332
386,330
381,329
379,329
376,330
376,328
372,328
373,325
374,325
377,325
377,324
377,322
376,322
376,321
374,320
380,320
380,319
381,318
381,316
386,316
388,316
389,316
390,316
390,316
390,316
391,312
392,309
393,308
393,308
394,304
393,303
393,300
400,299
400,306
406,304
407,303
411,296
415,286
417,282
418,280
426,280
429,280
429,284
432,287
439,287
439,287
438,292
435,299
435,302
438,302
440,302
440,304
438,309
438,310
436,314
" /> 
<polygon style="fill-rule:evenodd; " 
points="470,195
468,197
466,203
464,209
460,211
452,210
447,206
441,200
445,197
447,196
454,189
457,186
458,186
462,182
465,180
467,186
468,189
470,195
" /> 
<polygon style="fill-rule:evenodd; " 
points="263,209
260,211
260,210
251,209
225,209
224,199
224,194
225,187
234,187
246,187
250,187
254,197
254,198
255,199
259,206
263,209
" /> 
<polygon style="fill-rule:evenodd; " 
points="364,314
361,314
359,314
356,314
354,312
354,311
351,311
346,311
346,307
346,306
346,302
346,302
346,300
351,300
354,300
354,300
356,300
359,300
367,300
367,302
367,305
365,308
364,314
" /> 
<polygon style="fill-rule:evenodd; " 
points="249,264
248,265
245,268
240,274
237,270
239,269
240,268
238,266
243,261
245,262
245,262
249,264
" /> 
<polygon style="fill-rule:evenodd; " 
points="158,361
148,361
147,357
145,347
152,346
157,351
158,357
158,361
" /> 
<polygon style="fill-rule:evenodd; " 
points="361,237
362,241
362,241
363,248
364,252
364,257
364,261
364,263
364,272
367,281
367,283
367,286
369,286
373,291
372,293
369,297
367,294
367,294
361,296
360,297
360,297
360,294
362,289
363,288
364,284
363,283
356,281
355,281
354,279
354,276
354,266
354,263
354,259
354,257
354,254
354,248
354,247
353,241
353,241
354,237
361,237
" /> 
<polygon style="fill-rule:evenodd; " 
points="353,213
350,219
350,221
349,222
348,224
347,227
346,234
346,237
346,237
338,237
338,237
340,234
337,232
332,227
330,226
324,220
326,217
329,214
330,213
333,209
335,206
340,202
346,208
351,212
353,213
" /> 
<polygon style="fill-rule:evenodd; " 
points="346,194
344,196
340,202
335,206
331,200
329,196
327,191
325,188
324,186
325,179
328,176
330,173
335,167
335,167
336,169
338,171
340,173
338,180
336,182
343,194
346,194
" /> 
<polygon style="fill-rule:evenodd; " 
points="290,214
279,225
270,216
266,212
264,210
263,209
270,200
275,204
281,209
282,210
290,214
" /> 
<polygon style="fill-rule:evenodd; " 
points="315,301
318,300
318,302
318,304
318,305
320,307
321,308
321,312
320,317
311,316
310,316
306,316
304,315
299,315
292,314
293,311
293,304
294,299
301,300
303,300
303,300
309,301
315,302
315,301
" /> 
<polygon style="fill-rule:evenodd; " 
points="438,220
438,224
438,230
438,232
438,234
438,238
438,242
431,242
426,242
422,242
417,242
415,234
421,224
418,223
420,220
420,220
426,214
427,212
433,218
436,220
438,220
" /> 
<polygon style="fill-rule:evenodd; " 
points="363,184
360,193
359,196
359,197
357,203
354,210
353,211
353,213
353,213
351,212
346,208
340,202
344,196
346,194
353,186
358,180
361,183
363,184
" /> 
<polygon style="fill-rule:evenodd; " 
points="156,251
155,252
155,256
155,256
153,262
153,262
155,266
155,270
154,274
144,275
143,271
143,266
146,261
146,257
146,256
149,251
150,248
156,251
" /> 
<polygon style="fill-rule:evenodd; " 
points="206,212
207,213
203,218
204,223
207,226
207,230
210,232
212,235
210,238
206,247
204,244
201,239
198,230
193,224
188,216
181,211
182,209
188,209
197,209
202,209
205,209
206,212
" /> 
<polygon style="fill-rule:evenodd; " 
points="224,194
224,199
225,209
213,209
210,211
208,212
206,212
205,209
204,206
212,189
213,190
212,193
212,194
213,194
224,194
" /> 
<polygon style="fill-rule:evenodd; " 
points="274,196
270,200
263,209
259,206
255,199
254,198
254,197
250,187
246,175
244,166
242,153
251,152
252,152
257,164
260,175
263,181
263,181
266,187
272,194
274,196
" /> 
<polygon style="fill-rule:evenodd; " 
points="419,266
417,267
414,269
413,267
413,255
413,252
413,247
410,244
410,243
410,243
413,242
414,242
417,242
422,242
426,242
431,242
438,242
439,242
448,241
445,246
441,249
441,250
440,250
432,257
428,261
427,261
419,266
" /> 
<polygon style="fill-rule:evenodd; " 
points="175,361
168,361
166,361
158,361
158,357
157,351
152,346
145,347
144,340
146,340
158,336
169,333
168,343
168,344
168,350
171,353
174,357
175,361
" /> 
<polygon style="fill-rule:evenodd; " 
points="215,297
214,298
219,303
219,303
220,303
208,318
205,316
200,311
194,305
193,304
190,301
188,299
185,295
184,292
180,287
189,290
192,289
198,288
203,285
207,283
210,282
211,284
211,286
210,294
214,296
215,297
" /> 
<polygon style="fill-rule:evenodd; " 
points="460,232
469,224
469,224
478,223
481,224
481,225
481,228
481,229
481,234
481,237
477,234
470,234
470,233
468,234
461,233
460,232
" /> 
<polygon style="fill-rule:evenodd; " 
points="484,210
482,207
481,206
476,202
473,199
470,195
485,181
490,188
496,199
496,199
493,202
493,202
484,210
" /> 
<polygon style="fill-rule:evenodd; " 
points="485,181
470,195
470,195
468,189
467,186
465,180
468,177
470,175
477,167
480,172
485,181
" /> 
<polygon style="fill-rule:evenodd; " 
points="208,318
204,323
198,330
190,342
188,346
188,349
188,360
183,360
177,360
175,361
174,357
171,353
168,350
168,344
168,343
169,333
175,330
178,328
196,320
205,316
208,318
" /> 
<polygon style="fill-rule:evenodd; " 
points="240,234
236,239
222,239
222,235
222,230
222,218
222,214
226,211
228,214
234,222
237,226
240,234
" /> 
<polygon style="fill-rule:evenodd; " 
points="335,206
333,209
330,207
327,203
326,203
324,201
326,199
329,196
331,200
335,206
" /> 
<polygon style="fill-rule:evenodd; " 
points="308,281
308,281
307,281
298,281
298,273
297,273
297,272
297,270
299,265
299,261
299,259
296,259
295,262
295,263
295,264
294,261
295,260
299,253
303,250
308,248
308,248
308,250
308,253
308,253
308,255
308,258
308,262
308,265
308,268
308,270
308,271
308,276
308,281
" /> 
<polygon style="fill-rule:evenodd; " 
points="174,372
175,369
167,370
161,370
160,370
159,370
158,361
166,361
168,361
175,361
177,360
176,369
174,372
" /> 
<polygon style="fill-rule:evenodd; " 
points="397,459
413,459
413,462
428,461
431,468
423,471
416,473
403,475
394,459
395,458
395,458
396,458
397,459
" /> 
<polygon style="fill-rule:evenodd; " 
points="207,283
203,285
198,288
192,289
189,290
180,287
174,283
177,280
178,279
181,275
181,275
184,272
185,272
186,271
184,268
184,265
191,264
193,264
193,261
196,259
194,260
194,262
196,272
199,274
200,276
202,279
205,281
207,283
" /> 
<polygon style="fill-rule:evenodd; " 
points="485,258
484,260
483,260
480,260
478,261
473,268
471,269
468,269
466,265
462,265
461,263
456,263
457,265
455,265
450,265
449,265
450,261
452,250
452,249
452,249
459,249
462,249
469,249
479,249
479,249
485,258
" /> 
<polygon style="fill-rule:evenodd; " 
points="150,248
149,251
146,256
146,257
146,261
143,266
143,271
144,275
141,275
136,272
130,269
131,268
146,234
148,231
150,233
151,238
151,240
151,242
151,243
150,247
150,248
" /> 
<polygon style="fill-rule:evenodd; " 
points="206,247
207,249
210,254
210,254
211,255
215,263
212,267
207,266
205,270
210,282
207,283
205,281
202,279
200,276
199,274
196,272
194,262
194,260
196,259
197,257
198,254
198,252
195,251
195,250
194,249
191,244
193,240
194,239
200,239
201,239
204,244
206,247
" /> 
<polygon style="fill-rule:evenodd; " 
points="289,270
287,274
285,277
283,281
283,281
281,284
278,288
276,292
274,295
272,299
266,296
262,294
260,292
253,288
256,287
255,286
249,282
247,280
261,276
267,275
275,275
283,273
288,269
289,270
" /> 
<polygon style="fill-rule:evenodd; " 
points="328,302
329,308
329,315
329,318
322,318
320,317
321,312
321,308
320,307
318,305
318,304
318,302
328,302
" /> 
<polygon style="fill-rule:evenodd; " 
points="470,311
470,321
470,334
470,334
460,338
459,335
457,331
455,329
449,325
447,322
446,312
446,310
446,309
447,308
451,310
454,310
455,311
455,311
454,316
457,316
465,314
466,310
470,311
470,311
" /> 
<polygon style="fill-rule:evenodd; " 
points="411,207
419,208
427,212
426,214
420,220
420,220
418,223
416,227
408,230
406,231
404,232
402,234
399,237
398,239
395,242
395,242
388,242
382,241
381,241
377,240
377,240
395,219
405,211
410,207
411,207
" /> 
<polygon style="fill-rule:evenodd; " 
points="417,242
414,242
413,242
410,243
405,243
399,242
395,242
395,242
398,239
399,237
402,234
404,232
406,231
408,230
416,227
418,223
421,224
415,234
417,242
" /> 
<polygon style="fill-rule:evenodd; " 
points="484,210
484,210
477,217
471,222
469,224
469,224
460,232
458,234
457,233
457,234
455,235
455,236
453,237
448,241
439,242
438,242
438,238
438,234
438,232
438,230
438,224
438,220
441,220
448,221
454,219
457,217
460,211
464,209
466,203
468,197
470,195
470,195
473,199
476,202
481,206
482,207
484,210
" /> 
<polygon style="fill-rule:evenodd; " 
points="257,257
249,264
245,262
245,262
243,261
241,260
240,260
236,257
240,252
241,253
246,247
245,246
247,243
248,244
250,251
251,252
257,257
" /> 
<polygon style="fill-rule:evenodd; " 
points="359,372
359,373
361,378
361,379
360,382
358,382
357,384
355,387
354,390
351,390
351,390
347,388
348,386
350,382
351,381
349,370
350,369
351,368
353,367
357,366
359,371
359,372
" /> 
<polygon style="fill-rule:evenodd; " 
points="449,265
447,280
445,288
445,293
445,296
446,309
446,309
438,315
436,314
436,314
438,310
438,309
440,304
440,302
438,302
435,302
435,299
438,292
439,287
439,287
432,287
429,284
429,280
426,280
418,280
418,280
418,279
418,277
417,274
417,273
416,273
414,269
417,267
419,266
424,266
428,266
437,266
442,265
442,265
447,265
449,265
449,265
" /> 
<polygon style="fill-rule:evenodd; " 
points="315,242
315,242
308,248
303,250
299,253
295,260
294,261
293,257
291,252
290,249
291,247
296,242
296,241
296,241
297,240
298,239
301,236
305,231
307,235
307,236
308,239
315,242
" /> 
<polygon style="fill-rule:evenodd; " 
points="239,292
238,294
238,302
230,303
226,302
220,303
231,291
231,291
239,292
" /> 
<polygon style="fill-rule:evenodd; " 
points="247,243
245,246
246,247
241,253
240,252
236,257
240,260
239,260
239,260
239,260
235,257
235,257
235,257
231,253
230,253
226,250
226,250
226,249
226,248
228,248
236,239
240,234
247,243
" /> 
<polygon style="fill-rule:evenodd; " 
points="438,429
437,432
434,433
425,437
418,439
416,434
413,430
413,429
410,426
410,425
408,423
410,420
413,417
413,413
414,411
415,410
416,409
416,408
424,412
423,413
422,415
430,418
432,420
436,422
439,425
439,427
438,429
" /> 
</g>
<g style="fill:#FE9929; fill-opacity:1.00; stroke:#BE721E; stroke-opacity:1.00; stroke-linecap:round; stroke-linejoin:round; stroke-width:1" 
   transform="translate(0.00 0.00) scale(1.00 1.00)">
<polygon style="fill-rule:evenodd; " 
points="282,258
284,261
285,263
288,269
283,273
275,275
274,275
273,274
272,270
270,268
266,265
264,263
263,262
274,249
276,251
277,253
282,258
" /> 
<polygon style="fill-rule:evenodd; " 
points="294,209
294,210
290,214
282,210
281,209
275,204
270,200
274,196
279,198
290,206
294,209
" /> 
<polygon style="fill-rule:evenodd; " 
points="263,262
264,263
266,265
270,268
272,270
273,274
274,275
275,275
267,275
261,276
247,280
246,279
242,275
240,274
245,268
248,265
249,264
257,257
263,262
" /> 
<polygon style="fill-rule:evenodd; " 
points="462,373
462,379
462,383
462,394
460,397
456,414
446,411
446,397
445,396
445,383
444,370
452,370
459,370
459,373
461,373
462,373
" /> 
<polygon style="fill-rule:evenodd; " 
points="450,436
444,455
439,462
434,466
431,468
428,461
426,454
418,439
425,437
434,433
437,432
438,429
445,429
446,429
449,435
450,436
" /> 
<polygon style="fill-rule:evenodd; " 
points="414,269
416,273
417,273
417,274
418,277
418,279
418,280
418,280
417,280
415,280
413,280
406,280
400,280
398,280
394,280
393,280
389,280
388,280
388,280
388,267
392,267
395,267
399,267
401,267
405,267
409,267
413,267
414,269
" /> 
<polygon style="fill-rule:evenodd; " 
points="418,531
418,531
415,527
431,505
431,505
439,511
443,515
453,522
454,523
455,523
455,523
456,521
457,519
461,514
479,517
493,523
496,524
503,532
494,538
494,539
494,540
499,546
505,555
507,559
507,560
507,560
504,569
506,567
524,560
535,546
535,546
550,540
563,547
570,551
560,563
555,571
551,575
551,576
549,578
528,608
523,606
522,607
521,609
511,607
510,606
511,604
510,598
508,598
508,599
504,600
500,600
494,595
492,593
492,591
493,590
495,586
498,577
498,576
497,575
489,575
487,575
475,577
468,581
465,580
461,577
461,576
460,576
458,577
457,579
459,585
462,587
462,589
458,591
452,592
451,592
451,590
448,578
443,579
442,579
443,577
444,574
445,572
445,572
443,571
444,568
444,568
441,565
439,565
434,564
431,560
431,560
430,559
430,559
430,558
429,558
428,557
428,556
428,554
428,554
428,553
428,552
428,551
428,551
427,550
427,550
426,550
426,550
426,549
426,548
426,548
426,547
426,546
426,546
427,546
428,546
428,546
428,545
427,545
427,545
426,545
426,545
426,544
426,544
427,544
427,544
427,544
427,544
427,543
427,543
427,543
426,543
426,543
425,543
425,543
425,543
425,543
425,542
425,542
425,542
424,541
424,541
424,540
425,540
425,540
425,539
425,539
425,538
425,536
425,534
422,531
419,530
418,531
" /> 
<polygon style="fill-rule:evenodd; " 
points="456,414
460,397
462,394
462,383
467,383
476,383
483,386
486,388
491,391
491,405
491,424
491,424
484,423
473,420
456,414
" /> 
<polygon style="fill-rule:evenodd; " 
points="366,237
377,240
377,240
381,241
382,241
388,242
395,242
395,243
389,253
388,255
388,255
380,255
380,253
376,253
371,253
369,253
367,252
364,252
363,248
362,241
362,241
361,237
366,237
" /> 
<polygon style="fill-rule:evenodd; " 
points="318,244
318,252
318,252
318,253
318,258
318,259
318,263
318,265
318,267
318,271
318,273
318,280
318,284
308,281
308,276
308,271
308,270
308,268
308,265
308,262
308,258
308,255
308,253
308,253
308,250
308,248
308,248
315,242
318,244
" /> 
<polygon style="fill-rule:evenodd; " 
points="294,261
295,264
289,270
288,269
285,263
284,261
282,258
287,252
289,250
289,250
290,249
291,252
293,257
294,261
" /> 
<polygon style="fill-rule:evenodd; " 
points="290,249
289,250
289,250
287,252
282,258
277,253
276,251
274,249
273,247
281,240
286,234
286,234
287,237
290,249
" /> 
<polygon style="fill-rule:evenodd; " 
points="499,268
481,281
479,283
473,288
473,287
470,283
469,280
467,277
467,271
468,269
471,269
473,268
478,261
480,260
483,260
484,260
485,258
487,258
493,260
497,261
502,262
505,263
505,263
499,268
" /> 
<polygon style="fill-rule:evenodd; " 
points="335,257
333,259
333,260
331,260
331,261
330,261
330,261
330,263
330,271
328,271
325,271
318,271
318,267
318,265
318,263
318,259
318,258
318,253
318,252
318,252
318,244
320,246
328,252
335,257
" /> 
<polygon style="fill-rule:evenodd; " 
points="294,283
290,286
295,290
295,294
291,295
289,294
279,293
276,292
278,288
281,284
283,281
286,282
294,283
" /> 
<polygon style="fill-rule:evenodd; " 
points="260,307
260,308
260,313
260,314
251,315
248,315
243,314
238,314
238,312
238,309
238,302
244,304
247,305
251,305
253,306
260,307
" /> 
<polygon style="fill-rule:evenodd; " 
points="242,153
241,153
207,158
210,154
210,152
208,146
210,140
211,136
211,134
209,129
207,128
204,126
201,120
197,117
196,116
190,113
190,112
186,109
180,102
176,99
181,93
184,91
194,88
195,87
196,85
195,80
199,77
201,77
203,76
208,72
208,70
205,67
205,67
206,66
207,66
208,66
211,72
215,84
225,99
229,112
230,114
233,123
236,128
240,142
241,150
242,153
" /> 
<polygon style="fill-rule:evenodd; " 
points="188,374
188,376
188,379
188,385
182,387
180,388
178,389
178,389
174,385
175,376
174,372
176,369
177,360
183,360
188,360
188,368
188,370
188,372
188,374
" /> 
<polygon style="fill-rule:evenodd; " 
points="315,384
316,384
321,385
329,386
329,387
328,387
325,392
324,393
323,394
322,396
320,398
319,399
317,402
310,401
311,396
311,393
311,392
313,386
313,385
313,385
313,383
315,383
315,384
" /> 
<polygon style="fill-rule:evenodd; " 
points="416,386
415,392
416,393
418,396
418,403
417,405
416,408
416,409
415,410
414,411
413,413
413,417
410,420
408,423
405,418
400,419
400,410
400,409
400,405
400,400
400,399
404,400
404,397
405,397
405,393
407,393
407,391
412,391
412,383
416,386
" /> 
<polygon style="fill-rule:evenodd; " 
points="268,236
261,237
256,237
252,238
247,243
240,234
247,226
251,221
260,211
265,223
265,228
266,231
268,236
" /> 
<polygon style="fill-rule:evenodd; " 
points="346,237
354,237
353,241
353,241
354,247
354,248
354,254
354,257
354,259
354,263
354,266
354,276
354,279
346,278
346,276
346,265
343,263
339,260
337,258
338,257
338,253
338,247
338,237
346,237
" /> 
<polygon style="fill-rule:evenodd; " 
points="399,383
399,386
399,391
400,392
395,392
395,392
393,392
391,392
387,392
386,392
386,386
386,378
391,378
395,378
395,381
399,380
399,383
" /> 
<polygon style="fill-rule:evenodd; " 
points="493,287
493,295
493,305
493,312
491,315
491,320
491,324
491,326
491,327
491,329
491,332
491,355
489,354
481,354
468,354
462,353
461,343
460,338
470,334
470,334
470,321
470,311
470,310
470,310
474,310
472,308
472,302
473,298
473,293
475,292
479,291
486,287
492,287
493,287
" /> 
<polygon style="fill-rule:evenodd; " 
points="364,314
364,314
370,314
367,321
362,320
366,325
364,327
360,325
359,325
354,325
353,325
351,325
346,325
346,323
346,319
346,318
346,315
346,314
346,311
351,311
354,311
354,312
356,314
359,314
361,314
364,314
" /> 
<polygon style="fill-rule:evenodd; " 
points="197,405
202,415
207,429
209,434
216,455
215,455
192,475
192,475
190,476
190,476
187,478
167,468
165,468
165,468
164,468
161,468
150,468
144,454
144,429
144,407
144,407
142,407
142,403
144,402
146,401
148,400
148,401
148,401
154,420
155,431
159,431
160,435
165,445
165,445
173,445
178,444
192,444
192,441
192,429
195,429
196,425
195,423
192,413
190,409
181,391
180,388
182,387
188,385
197,405
" /> 
<polygon style="fill-rule:evenodd; " 
points="315,301
315,302
309,301
303,300
303,300
301,300
294,299
295,294
295,290
290,286
294,283
296,282
297,281
301,285
302,286
308,294
310,295
311,297
315,301
" /> 
<polygon style="fill-rule:evenodd; " 
points="460,211
457,217
454,219
448,221
441,220
438,220
436,220
433,218
427,212
431,208
441,201
441,200
447,206
452,210
460,211
" /> 
<polygon style="fill-rule:evenodd; " 
points="400,409
399,409
397,410
391,410
388,410
386,410
386,409
386,400
387,400
395,400
400,400
400,405
400,409
" /> 
<polygon style="fill-rule:evenodd; " 
points="310,433
310,438
310,447
310,458
311,461
311,465
312,471
312,477
291,478
291,477
292,471
293,465
293,461
293,460
291,454
290,452
291,450
291,449
291,446
291,437
294,432
301,433
307,433
310,433
" /> 
<polygon style="fill-rule:evenodd; " 
points="333,377
333,384
334,386
329,386
321,385
316,384
315,384
319,381
320,380
322,378
325,376
328,377
333,377
" /> 
<polygon style="fill-rule:evenodd; " 
points="357,359
357,362
356,363
357,366
353,367
351,368
350,369
349,370
347,369
345,368
340,364
343,361
344,355
344,354
345,355
349,358
350,358
353,360
357,359
" /> 
<polygon style="fill-rule:evenodd; " 
points="400,399
400,400
395,400
387,400
386,400
385,400
383,400
377,400
373,400
373,396
373,395
373,393
373,392
377,392
379,392
383,392
385,392
386,392
387,392
391,392
393,392
395,392
395,392
400,392
400,399
" /> 
<polygon style="fill-rule:evenodd; " 
points="279,225
279,226
276,228
276,229
275,230
268,238
268,236
266,231
265,228
265,223
260,211
263,209
264,210
266,212
270,216
279,225
" /> 
<polygon style="fill-rule:evenodd; " 
points="333,209
330,213
329,214
326,217
324,220
317,214
316,213
314,208
319,204
324,201
326,203
327,203
330,207
333,209
" /> 
<polygon style="fill-rule:evenodd; " 
points="216,339
215,347
215,357
215,358
215,360
209,360
205,360
195,360
193,360
188,360
188,349
188,346
190,342
198,330
205,338
210,339
216,339
" /> 
<polygon style="fill-rule:evenodd; " 
points="359,444
362,450
364,454
366,460
353,460
346,460
345,461
345,460
342,456
342,453
342,452
342,450
342,448
342,447
342,445
342,442
359,442
359,444
" /> 
<polygon style="fill-rule:evenodd; " 
points="462,353
462,373
461,373
459,373
459,370
452,370
444,370
437,370
431,370
431,369
433,367
433,365
435,364
435,361
433,360
431,362
422,360
417,354
416,352
426,351
437,351
443,352
444,352
457,352
462,353
" /> 
<polygon style="fill-rule:evenodd; " 
points="342,450
342,452
342,453
342,456
345,460
345,461
346,460
353,460
366,460
369,475
354,475
346,477
342,477
329,477
328,476
329,476
329,465
329,457
329,454
329,450
342,450
" /> 
<polygon style="fill-rule:evenodd; " 
points="341,404
341,407
341,409
341,411
341,412
341,413
341,419
341,419
334,419
328,419
328,417
328,417
328,416
328,415
328,411
328,404
329,404
329,403
332,403
332,403
333,403
333,403
341,403
341,404
" /> 
<polygon style="fill-rule:evenodd; " 
points="346,276
346,278
346,280
346,285
337,285
329,285
328,285
320,285
320,286
318,284
318,280
318,273
318,271
325,271
328,271
330,271
337,271
337,271
340,271
340,276
346,276
" /> 
<polygon style="fill-rule:evenodd; " 
points="238,314
238,324
230,319
225,319
215,323
208,318
220,303
226,302
230,303
238,302
238,309
238,312
238,314
" /> 
<polygon style="fill-rule:evenodd; " 
points="365,435
365,439
365,444
359,444
359,442
342,442
342,440
342,438
342,433
355,433
363,433
365,435
" /> 
<polygon style="fill-rule:evenodd; " 
points="313,385
313,385
313,386
311,392
311,393
311,396
310,401
310,403
305,403
301,403
301,402
300,401
294,400
292,401
292,401
292,399
292,396
293,393
293,389
294,386
294,383
303,384
304,384
313,385
313,385
" /> 
<polygon style="fill-rule:evenodd; " 
points="260,211
251,221
247,226
240,234
237,226
234,222
228,214
226,211
225,209
251,209
260,210
260,211
" /> 
<polygon style="fill-rule:evenodd; " 
points="329,450
329,454
329,457
329,465
329,476
328,476
329,477
312,477
312,471
311,465
311,461
310,458
310,447
310,438
310,433
312,433
319,433
322,433
329,433
329,442
329,445
329,450
" /> 
<polygon style="fill-rule:evenodd; " 
points="215,377
211,379
205,381
188,385
188,379
188,376
188,374
189,374
193,374
192,375
199,375
199,370
199,367
199,367
202,367
210,367
210,365
215,365
215,368
215,377
215,377
" /> 
</g>
<g style="fill:#D95F0E; fill-opacity:1.00; stroke:#000000; stroke-opacity:0.0; stroke-linecap:round; stroke-linejoin:round; stroke-width:1" 
   transform="translate(0.00 0.00) scale(1.00 1.00)">
<polygon style="fill-rule:evenodd; " 
points="353,211
361,218
363,224
362,228
365,236
366,237
366,237
366,237
361,237
354,237
346,237
346,237
346,234
347,227
348,224
349,222
350,221
350,219
353,213
353,213
353,211
378,199
366,212
357,203
359,197
359,196
360,193
363,184
365,186
372,192
378,199
353,211
" /> 
</g>
<g style="fill:#D95F0E; fill-opacity:1.00; stroke:#A2470A; stroke-opacity:1.00; stroke-linecap:round; stroke-linejoin:round; stroke-width:1" 
   transform="translate(0.00 0.00) scale(1.00 1.00)">
<path d="M353 211 L361 218" /> 
<path d="M361 218 L363 224" /> 
<path d="M363 224 L362 228" /> 
<path d="M362 228 L365 236" /> 
<path d="M365 236 L366 237" /> 
<path d="M366 237 L366 237" /> 
<path d="M366 237 L366 237" /> 
<path d="M366 237 L361 237" /> 
<path d="M361 237 L354 237" /> 
<path d="M354 237 L346 237" /> 
<path d="M346 237 L346 237" /> 
<path d="M346 237 L346 234" /> 
<path d="M346 234 L347 227" /> 
<path d="M347 227 L348 224" /> 
<path d="M348 224 L349 222" /> 
<path d="M349 222 L350 221" /> 
<path d="M350 221 L350 219" /> 
<path d="M350 219 L353 213" /> 
<path d="M353 213 L353 213" /> 
<path d="M353 213 L353 211" /> 
<path d="M378 199 L366 212" /> 
<path d="M366 212 L357 203" /> 
<path d="M357 203 L359 197" /> 
<path d="M359 197 L359 196" /> 
<path d="M359 196 L360 193" /> 
<path d="M360 193 L363 184" /> 
<path d="M363 184 L365 186" /> 
<path d="M365 186 L372 192" /> 
<path d="M372 192 L378 199" /> 
<polygon style="fill-rule:evenodd; " 
points="426,392
431,392
437,394
438,396
446,411
456,414
451,429
450,436
449,435
446,429
445,429
438,429
439,427
439,425
436,422
432,420
430,418
422,415
423,413
424,412
416,408
417,405
418,403
418,396
416,393
415,392
416,386
426,392
" /> 
<polygon style="fill-rule:evenodd; " 
points="318,284
318,288
318,289
318,291
318,293
318,294
318,298
318,300
315,301
311,297
310,295
308,294
302,286
301,285
297,281
298,281
307,281
308,281
308,281
318,284
" /> 
<polygon style="fill-rule:evenodd; " 
points="373,393
373,395
373,396
373,400
373,400
368,400
369,402
367,403
365,400
362,402
361,405
361,406
358,405
356,405
355,394
354,390
366,393
371,393
372,393
373,393
" /> 
<polygon style="fill-rule:evenodd; " 
points="412,383
412,391
407,391
407,393
405,393
405,397
404,397
404,400
400,399
400,392
399,391
399,386
399,383
405,383
412,383
" /> 
<polygon style="fill-rule:evenodd; " 
points="286,234
286,234
281,240
273,247
272,246
272,246
268,238
275,230
276,229
276,228
279,226
279,225
281,227
285,232
286,234
" /> 
<polygon style="fill-rule:evenodd; " 
points="288,314
292,314
299,315
304,315
303,322
303,326
303,326
295,325
291,325
286,324
283,324
282,324
281,324
282,313
287,314
288,314
" /> 
<polygon style="fill-rule:evenodd; " 
points="291,478
275,478
253,483
249,483
241,483
235,482
229,480
226,477
226,477
241,466
241,466
245,464
255,465
256,466
256,467
259,466
268,467
275,458
276,457
284,446
288,441
291,437
291,446
291,449
291,450
290,452
291,454
293,460
293,461
293,465
292,471
291,477
291,478
" /> 
<polygon style="fill-rule:evenodd; " 
points="386,400
386,409
386,410
381,410
381,415
381,416
381,419
381,421
377,421
377,421
374,416
371,411
367,403
369,402
368,400
373,400
373,400
377,400
383,400
385,400
386,400
" /> 
<polygon style="fill-rule:evenodd; " 
points="365,435
363,433
355,433
342,433
342,427
341,426
341,422
341,419
341,419
349,419
360,419
362,422
362,423
365,426
365,429
365,435
" /> 
<polygon style="fill-rule:evenodd; " 
points="357,406
357,406
357,408
357,409
358,412
359,416
360,419
349,419
341,419
341,413
341,412
341,411
341,409
341,407
341,404
344,404
344,404
344,403
347,403
347,402
348,402
349,402
357,406
" /> 
<polygon style="fill-rule:evenodd; " 
points="417,366
417,366
416,367
416,368
416,371
416,383
412,383
405,383
399,383
399,380
395,381
395,378
391,378
386,378
386,375
386,374
386,370
386,367
386,365
388,365
391,365
393,365
395,365
398,365
400,365
403,365
405,365
405,365
406,365
411,365
416,365
416,366
416,365
417,365
417,366
417,366
" /> 
<polygon style="fill-rule:evenodd; " 
points="373,378
373,378
367,378
365,379
361,379
361,378
359,373
359,372
362,371
366,373
367,373
367,367
369,367
370,368
370,367
373,367
373,370
373,373
373,378
" /> 
<polygon style="fill-rule:evenodd; " 
points="213,421
219,422
224,423
224,434
238,436
235,438
233,440
231,442
224,447
220,451
216,455
209,434
207,429
202,415
210,420
213,421
" /> 
<polygon style="fill-rule:evenodd; " 
points="268,238
272,246
272,246
273,247
274,249
263,262
257,257
251,252
250,251
248,244
247,243
252,238
256,237
261,237
268,236
268,238
" /> 
<polygon style="fill-rule:evenodd; " 
points="281,333
282,334
285,334
290,334
290,335
289,345
284,344
281,344
279,344
275,343
270,343
266,342
262,342
263,337
266,337
266,333
267,330
271,331
271,332
276,333
276,332
276,332
280,333
280,333
281,333
" /> 
<polygon style="fill-rule:evenodd; " 
points="215,360
215,365
210,365
210,367
202,367
199,367
199,367
199,370
199,375
192,375
193,374
189,374
188,374
188,372
188,370
188,368
188,360
193,360
195,360
205,360
209,360
215,360
" /> 
<polygon style="fill-rule:evenodd; " 
points="295,294
294,299
293,304
293,311
292,314
288,314
283,309
276,303
275,302
272,299
274,295
276,292
279,293
289,294
291,295
295,294
" /> 
<polygon style="fill-rule:evenodd; " 
points="320,286
326,291
327,292
328,295
328,302
318,302
318,300
318,298
318,294
318,293
318,291
318,289
318,288
318,284
320,286
" /> 
<polygon style="fill-rule:evenodd; " 
points="346,285
346,289
346,293
346,295
346,299
346,300
346,302
337,302
328,302
328,295
327,292
326,291
320,286
320,285
328,285
329,285
337,285
346,285
" /> 
<polygon style="fill-rule:evenodd; " 
points="341,419
341,422
341,426
342,427
342,433
335,433
329,433
329,429
328,426
328,426
328,422
328,419
334,419
341,419
" /> 
<polygon style="fill-rule:evenodd; " 
points="386,378
386,386
386,392
385,392
383,392
379,392
377,392
373,392
373,386
373,384
373,382
373,378
373,378
375,378
376,378
376,378
379,378
379,378
386,378
" /> 
<polygon style="fill-rule:evenodd; " 
points="384,440
389,439
390,440
393,451
396,454
397,459
396,458
395,458
395,458
394,459
403,475
399,475
391,475
369,475
366,460
364,454
362,450
359,444
365,444
365,439
365,435
373,438
379,439
384,440
" /> 
<polygon style="fill-rule:evenodd; " 
points="301,346
300,351
304,352
304,353
304,356
304,358
299,359
296,360
292,361
287,362
287,360
287,356
287,355
288,354
288,352
288,352
288,349
289,345
290,345
292,345
298,346
301,346
" /> 
<polygon style="fill-rule:evenodd; " 
points="279,375
276,375
276,376
275,381
274,381
274,383
271,382
267,382
258,380
257,376
257,374
257,373
256,374
253,373
253,373
253,371
258,370
267,368
272,366
274,366
277,365
279,364
279,366
278,370
279,370
279,372
279,374
279,375
279,375
" /> 
<polygon style="fill-rule:evenodd; " 
points="446,310
446,312
447,322
449,325
455,329
457,331
459,335
460,338
461,343
462,353
457,352
444,352
443,352
437,351
426,351
416,352
421,349
423,347
427,343
430,339
430,336
427,323
438,315
446,309
446,310
" /> 
<polygon style="fill-rule:evenodd; " 
points="266,296
263,299
261,306
260,307
253,306
251,305
247,305
244,304
238,302
238,294
239,292
245,291
250,289
253,288
260,292
262,294
266,296
" /> 
<polygon style="fill-rule:evenodd; " 
points="337,258
339,260
343,263
346,265
346,276
340,276
340,271
337,271
337,271
330,271
330,263
330,261
330,261
331,261
331,260
333,260
333,259
335,257
336,258
337,258
" /> 
<polygon style="fill-rule:evenodd; " 
points="359,325
360,329
360,331
360,333
356,335
355,336
351,338
350,339
347,335
347,334
346,330
346,325
351,325
353,325
354,325
359,325
" /> 
<polygon style="fill-rule:evenodd; " 
points="334,386
334,389
333,389
333,392
333,396
333,397
333,399
332,403
332,403
329,403
323,403
321,403
317,403
317,402
319,399
320,398
322,396
323,394
324,393
325,392
328,387
329,387
329,386
334,386
" /> 
<polygon style="fill-rule:evenodd; " 
points="241,466
226,477
221,469
221,469
219,467
215,456
215,455
216,455
220,451
224,447
231,451
231,452
233,456
235,460
236,461
239,463
241,466
" /> 
<polygon style="fill-rule:evenodd; " 
points="237,416
240,419
247,422
252,423
250,425
238,436
238,436
224,434
224,423
219,422
222,412
226,410
225,408
237,416
" /> 
</g>
<g style="fill:#D95F0E; fill-opacity:1.00; stroke:#000000; stroke-opacity:0.0; stroke-linecap:round; stroke-linejoin:round; stroke-width:1" 
   transform="translate(0.00 0.00) scale(1.00 1.00)">
<polygon style="fill-rule:evenodd; " 
points="379,300
383,300
386,300
393,300
393,303
394,304
393,308
393,308
392,309
391,312
390,316
390,316
390,316
389,316
388,316
386,316
381,316
381,318
380,319
380,320
374,320
376,321
376,322
377,322
377,324
377,325
374,325
373,325
371,325
371,324
371,323
373,320
375,316
374,316
376,312
379,308
379,308
380,309
380,308
383,303
378,303
379,300
411,296
407,303
406,304
400,306
400,299
403,299
405,297
407,298
411,296
379,300
" /> 
</g>
<g style="fill:#D95F0E; fill-opacity:1.00; stroke:#A2470A; stroke-opacity:1.00; stroke-linecap:round; stroke-linejoin:round; stroke-width:1" 
   transform="translate(0.00 0.00) scale(1.00 1.00)">
<path d="M379 300 L383 300" /> 
<path d="M383 300 L386 300" /> 
<path d="M386 300 L393 300" /> 
<path d="M393 300 L393 303" /> 
<path d="M393 303 L394 304" /> 
<path d="M394 304 L393 308" /> 
<path d="M393 308 L393 308" /> 
<path d="M393 308 L392 309" /> 
<path d="M392 309 L391 312" /> 
<path d="M391 312 L390 316" /> 
<path d="M390 316 L390 316" /> 
<path d="M390 316 L390 316" /> 
<path d="M390 316 L389 316" /> 
<path d="M389 316 L388 316" /> 
<path d="M388 316 L386 316" /> 
<path d="M386 316 L381 316" /> 
<path d="M381 316 L381 318" /> 
<path d="M381 318 L380 319" /> 
<path d="M380 319 L380 320" /> 
<path d="M380 320 L374 320" /> 
<path d="M374 320 L376 321" /> 
<path d="M376 321 L376 322" /> 
<path d="M376 322 L377 322" /> 
<path d="M377 322 L377 324" /> 
<path d="M377 324 L377 325" /> 
<path d="M377 325 L374 325" /> 
<path d="M374 325 L373 325" /> 
<path d="M373 325 L371 325" /> 
<path d="M371 325 L371 324" /> 
<path d="M371 324 L371 323" /> 
<path d="M371 323 L373 320" /> 
<path d="M373 320 L375 316" /> 
<path d="M375 316 L374 316" /> 
<path d="M374 316 L376 312" /> 
<path d="M376 312 L379 308" /> 
<path d="M379 308 L379 308" /> 
<path d="M379 308 L380 309" /> 
<path d="M380 309 L380 308" /> 
<path d="M380 308 L383 303" /> 
<path d="M383 303 L378 303" /> 
<path d="M378 303 L379 300" /> 
<path d="M411 296 L407 303" /> 
<path d="M407 303 L406 304" /> 
<path d="M406 304 L400 306" /> 
<path d="M400 306 L400 299" /> 
<path d="M400 299 L403 299" /> 
<path d="M403 299 L405 297" /> 
<path d="M405 297 L407 298" /> 
<path d="M407 298 L411 296" /> 
<polygon style="fill-rule:evenodd; " 
points="354,279
355,281
354,284
353,285
353,289
353,294
354,300
354,300
351,300
346,300
346,299
346,295
346,293
346,289
346,285
346,280
346,278
354,279
" /> 
<polygon style="fill-rule:evenodd; " 
points="320,317
322,318
329,318
329,318
330,323
331,329
330,329
319,328
314,327
312,327
310,327
309,327
303,326
303,322
304,315
306,316
310,316
311,316
320,317
" /> 
<polygon style="fill-rule:evenodd; " 
points="329,433
322,433
319,433
312,433
310,433
307,433
301,433
294,432
298,427
299,426
301,423
304,420
305,420
310,419
312,419
326,419
328,419
328,422
328,426
328,426
329,429
329,433
" /> 
<polygon style="fill-rule:evenodd; " 
points="400,419
400,421
399,421
393,421
388,421
381,421
381,419
381,416
381,415
381,410
386,410
388,410
391,410
397,410
399,409
400,409
400,410
400,419
" /> 
<polygon style="fill-rule:evenodd; " 
points="452,249
452,249
452,250
450,261
449,265
449,265
447,265
442,265
442,265
437,266
428,266
424,266
419,266
427,261
428,261
432,257
440,250
441,250
441,249
445,246
448,241
453,237
455,236
455,235
454,239
453,246
453,248
452,249
" /> 
<polygon style="fill-rule:evenodd; " 
points="346,325
346,330
341,330
341,331
340,330
338,330
331,329
330,323
329,318
330,318
337,318
340,318
346,318
346,319
346,323
346,325
" /> 
<polygon style="fill-rule:evenodd; " 
points="213,421
210,420
202,415
197,405
204,402
212,420
213,421
" /> 
<polygon style="fill-rule:evenodd; " 
points="468,269
467,271
467,277
469,280
470,283
473,287
473,288
461,297
446,309
446,309
446,310
446,309
446,309
445,296
445,293
445,288
447,280
449,265
450,265
455,265
457,265
456,263
461,263
462,265
466,265
468,269
" /> 
<polygon style="fill-rule:evenodd; " 
points="279,344
279,349
278,351
278,354
278,358
277,365
274,366
272,366
267,368
268,363
268,358
269,353
269,350
269,348
270,343
275,343
279,344
" /> 
<polygon style="fill-rule:evenodd; " 
points="346,311
346,314
346,315
346,318
340,318
337,318
330,318
329,318
329,318
329,315
329,308
328,302
337,302
346,302
346,302
346,306
346,307
346,311
" /> 
<polygon style="fill-rule:evenodd; " 
points="342,433
342,438
342,440
342,442
342,445
342,447
342,448
342,450
329,450
329,445
329,442
329,433
335,433
342,433
" /> 
<polygon style="fill-rule:evenodd; " 
points="408,423
410,425
410,426
413,429
413,430
416,434
418,439
400,439
391,439
389,439
384,440
383,434
380,426
377,421
377,421
381,421
388,421
393,421
399,421
400,421
400,419
405,418
408,423
" /> 
<polygon style="fill-rule:evenodd; " 
points="260,314
260,318
260,321
263,322
260,323
254,324
251,324
250,324
245,324
245,324
243,314
248,315
251,315
260,314
" /> 
<polygon style="fill-rule:evenodd; " 
points="436,314
436,314
438,315
427,323
430,336
430,339
427,343
423,347
421,349
416,352
417,354
422,360
431,362
433,360
435,361
435,364
433,365
429,365
418,365
417,366
417,366
417,365
416,365
416,366
416,365
411,365
406,365
405,365
405,365
405,358
405,351
405,339
406,333
407,332
406,333
414,320
416,317
416,317
420,314
420,314
435,313
436,314
" /> 
</g>
<g style="fill:#993404; fill-opacity:1.00; stroke:#722703; stroke-opacity:1.00; stroke-linecap:round; stroke-linejoin:round; stroke-width:1" 
   transform="translate(0.00 0.00) scale(1.00 1.00)">
<polygon style="fill-rule:evenodd; " 
points="262,342
266,342
270,343
269,348
269,350
269,353
268,358
268,363
267,368
258,370
253,371
253,357
253,356
253,349
253,341
261,342
262,342
" /> 
<polygon style="fill-rule:evenodd; " 
points="373,392
373,393
372,393
371,393
366,393
354,390
355,387
357,384
358,382
360,382
361,379
365,379
367,378
373,378
373,382
373,384
373,386
373,392
" /> 
<polygon style="fill-rule:evenodd; " 
points="446,411
438,396
437,394
431,392
426,392
426,390
425,389
423,390
422,390
421,388
422,386
423,385
423,384
422,383
421,380
420,377
421,376
422,375
424,376
425,376
431,372
431,370
437,370
444,370
445,383
445,396
446,397
446,411
" /> 
<polygon style="fill-rule:evenodd; " 
points="331,349
331,351
331,351
331,354
330,357
330,358
330,362
330,363
325,363
323,363
320,362
320,363
319,363
319,362
316,362
316,361
316,358
316,357
316,356
316,354
317,352
317,348
320,348
322,348
324,349
327,349
331,349
" /> 
<polygon style="fill-rule:evenodd; " 
points="303,326
302,331
302,333
301,336
298,336
296,336
290,335
290,334
285,334
282,334
281,333
282,324
283,324
286,324
291,325
295,325
303,326
" /> 
<polygon style="fill-rule:evenodd; " 
points="317,344
317,348
312,347
307,347
301,346
301,340
301,339
301,338
301,336
302,333
309,333
314,334
313,335
313,339
313,340
313,343
317,344
" /> 
<polygon style="fill-rule:evenodd; " 
points="373,325
372,328
376,328
376,330
379,329
381,329
386,330
386,332
386,335
386,337
376,337
371,338
369,341
368,341
365,339
367,336
368,336
368,335
368,334
368,333
368,333
369,328
369,328
371,323
371,324
371,325
373,325
" /> 
<polygon style="fill-rule:evenodd; " 
points="386,378
379,378
379,378
376,378
376,378
375,378
373,378
373,373
373,370
373,367
378,367
380,367
381,367
386,367
386,370
386,374
386,375
386,378
" /> 
<polygon style="fill-rule:evenodd; " 
points="328,419
326,419
312,419
310,419
310,417
310,414
310,412
310,411
310,411
321,411
323,411
328,411
328,415
328,416
328,417
328,417
328,419
" /> 
<polygon style="fill-rule:evenodd; " 
points="433,365
433,367
431,369
431,370
431,372
425,376
424,376
422,375
421,376
420,377
421,380
422,383
423,384
423,385
422,386
421,388
422,390
423,390
425,389
426,390
426,392
416,386
412,383
416,383
416,371
416,368
416,367
417,366
417,366
418,365
429,365
433,365
" /> 
<polygon style="fill-rule:evenodd; " 
points="282,313
281,324
282,324
281,333
280,333
280,333
276,332
276,332
276,333
271,332
271,331
267,330
267,325
268,322
265,322
263,322
260,321
260,318
260,314
260,313
265,313
265,312
274,312
282,313
" /> 
<polygon style="fill-rule:evenodd; " 
points="354,390
355,394
356,405
357,406
349,402
348,402
347,402
347,403
344,403
344,404
344,404
341,404
341,403
333,403
333,403
332,403
333,399
333,397
333,396
333,392
333,389
334,389
334,386
339,386
341,386
343,386
348,386
347,388
351,390
351,390
354,390
" /> 
<polygon style="fill-rule:evenodd; " 
points="349,370
351,381
350,382
348,386
343,386
341,386
339,386
334,386
333,384
333,377
334,375
335,373
335,372
337,368
340,364
345,368
347,369
349,370
" /> 
<polygon style="fill-rule:evenodd; " 
points="379,300
378,303
383,303
380,308
380,309
379,308
379,308
376,312
374,316
375,316
373,320
371,323
369,328
369,328
368,328
364,327
366,325
362,320
367,321
370,314
364,314
364,314
365,308
367,305
367,302
367,300
369,297
369,297
372,293
379,300
" /> 
<polygon style="fill-rule:evenodd; " 
points="317,402
317,403
321,403
323,403
329,403
329,404
328,404
328,411
323,411
321,411
310,411
310,411
310,403
310,401
317,402
" /> 
<polygon style="fill-rule:evenodd; " 
points="250,187
246,187
234,187
225,187
224,194
213,194
212,194
212,193
213,190
212,189
211,185
208,184
207,181
205,181
206,178
205,176
207,176
207,170
207,158
241,153
242,153
244,166
246,175
250,187
" /> 
<polygon style="fill-rule:evenodd; " 
points="294,432
291,437
288,441
284,446
276,457
275,458
268,467
259,466
256,467
256,466
255,465
245,464
245,464
249,460
254,452
267,436
272,429
272,429
281,431
294,432
" /> 
<polygon style="fill-rule:evenodd; " 
points="303,362
303,364
303,364
305,364
305,365
308,365
309,365
315,366
315,370
314,371
314,373
314,378
313,383
313,385
313,385
304,384
303,384
294,383
295,377
295,371
296,366
296,362
301,363
301,361
303,362
" /> 
<polygon style="fill-rule:evenodd; " 
points="241,340
253,341
253,349
253,356
253,357
253,371
245,372
241,372
237,372
236,373
233,373
218,377
215,377
215,377
215,368
215,365
215,360
215,358
215,357
215,347
216,339
230,338
241,340
" /> 
<polygon style="fill-rule:evenodd; " 
points="272,299
275,302
276,303
283,309
288,314
287,314
282,313
274,312
265,312
265,313
260,313
260,308
260,307
261,306
263,299
266,296
272,299
" /> 
<polygon style="fill-rule:evenodd; " 
points="373,357
373,362
373,367
370,367
370,368
369,367
367,367
367,373
366,373
362,371
359,372
359,371
357,366
356,363
357,362
357,359
362,362
365,365
366,365
365,355
370,356
373,357
" /> 
<polygon style="fill-rule:evenodd; " 
points="267,330
266,333
266,337
263,337
262,342
261,342
253,341
241,340
241,334
238,333
238,324
245,324
250,324
251,324
254,324
260,323
263,322
265,322
268,322
267,325
267,330
" /> 
<polygon style="fill-rule:evenodd; " 
points="303,362
301,361
301,363
296,362
296,366
295,371
295,377
285,376
279,375
279,375
279,374
279,372
279,370
278,370
279,366
279,364
287,362
292,361
296,360
299,359
304,358
304,359
303,361
303,362
" /> 
<polygon style="fill-rule:evenodd; " 
points="399,475
400,477
404,481
404,482
405,484
408,488
409,492
405,498
407,503
410,507
410,508
409,508
409,509
409,509
409,510
409,510
408,512
409,512
409,513
412,515
412,515
413,515
413,516
413,516
412,517
412,517
413,519
413,519
414,518
415,518
415,518
415,520
415,522
415,522
414,523
414,523
414,522
414,522
413,521
413,521
413,522
414,525
414,526
414,527
414,527
415,528
415,529
415,530
415,530
415,531
416,531
416,531
416,531
416,530
416,530
417,530
418,531
418,531
412,543
389,536
387,536
390,544
390,567
390,567
387,568
387,567
388,563
384,560
381,560
379,560
381,559
380,558
378,556
376,556
375,556
375,556
374,558
373,557
373,556
370,553
360,550
359,550
358,544
356,544
355,541
351,535
346,526
346,521
344,515
343,513
344,497
344,487
343,479
342,478
344,478
346,477
354,475
369,475
391,475
399,475
" /> 
<polygon style="fill-rule:evenodd; " 
points="292,401
294,401
294,404
293,405
291,408
291,411
291,416
301,417
305,415
301,403
305,403
310,403
310,411
310,412
310,414
310,417
310,419
305,420
304,420
301,423
299,426
298,427
294,432
281,431
272,429
272,429
271,428
292,399
292,401
292,401
" /> 
<polygon style="fill-rule:evenodd; " 
points="331,329
332,332
332,332
333,333
333,334
333,337
332,337
332,337
332,338
332,339
320,338
318,338
318,335
319,333
319,332
319,328
330,329
331,329
" /> 
<polygon style="fill-rule:evenodd; " 
points="279,375
285,376
295,377
294,383
294,386
293,389
293,393
292,396
286,400
283,400
283,398
283,395
283,395
282,394
278,394
280,386
274,383
274,381
275,381
276,376
276,375
279,375
" /> 
<polygon style="fill-rule:evenodd; " 
points="330,363
330,364
330,365
329,367
334,368
334,368
337,368
335,372
335,373
334,375
333,377
328,377
325,376
322,378
320,380
319,381
315,384
315,383
313,383
314,378
314,373
314,371
315,370
315,366
316,362
319,362
319,363
320,363
320,362
323,363
325,363
330,363
" /> 
<polygon style="fill-rule:evenodd; " 
points="386,358
386,365
386,367
381,367
380,367
378,367
373,367
373,362
373,357
379,358
380,358
386,358
" /> 
<polygon style="fill-rule:evenodd; " 
points="289,345
288,349
288,352
288,352
288,354
287,355
287,356
287,360
287,362
279,364
277,365
278,358
278,354
278,351
279,349
279,344
281,344
284,344
289,345
" /> 
<polygon style="fill-rule:evenodd; " 
points="271,428
272,429
267,436
254,452
249,460
245,464
245,464
241,466
241,466
239,463
236,461
235,460
233,456
231,452
231,451
224,447
231,442
233,440
235,438
238,436
238,436
250,425
252,423
256,423
257,426
259,428
262,428
262,430
266,430
266,431
266,432
265,435
266,435
271,428
" /> 
<polygon style="fill-rule:evenodd; " 
points="365,346
365,349
365,355
366,365
365,365
362,362
357,359
353,360
350,358
349,358
345,355
344,354
344,353
344,351
344,346
344,342
344,342
350,339
351,338
355,336
356,335
357,337
359,341
360,341
364,345
365,346
" /> 
<polygon style="fill-rule:evenodd; " 
points="301,336
301,338
301,339
301,340
301,346
298,346
292,345
290,345
289,345
290,335
296,336
298,336
301,336
" /> 
<polygon style="fill-rule:evenodd; " 
points="364,327
368,328
369,328
368,333
368,333
368,334
368,335
368,336
367,336
365,339
368,341
365,346
364,345
360,341
359,341
357,337
356,335
360,333
360,331
360,329
359,325
360,325
364,327
" /> 
<polygon style="fill-rule:evenodd; " 
points="317,348
317,352
316,354
316,356
316,357
316,358
316,361
316,362
315,366
309,365
308,365
305,365
305,364
303,364
303,364
303,362
303,361
304,359
304,358
304,356
304,353
304,352
300,351
301,346
307,347
312,347
317,348
" /> 
<polygon style="fill-rule:evenodd; " 
points="356,544
354,543
351,544
349,545
349,548
344,548
338,545
334,545
327,549
325,551
324,554
324,557
323,560
314,563
312,562
308,559
305,559
304,560
305,562
297,567
281,560
279,559
280,557
279,555
276,554
272,555
266,554
266,554
266,553
264,548
260,547
264,541
276,523
277,522
282,519
285,516
288,497
289,491
291,478
312,477
329,477
342,477
346,477
344,478
342,478
343,479
344,487
344,497
343,513
344,515
346,521
346,526
351,535
355,541
356,544
" /> 
<polygon style="fill-rule:evenodd; " 
points="350,339
344,342
344,342
340,335
341,332
341,331
341,330
346,330
347,334
347,335
350,339
" /> 
<polygon style="fill-rule:evenodd; " 
points="319,328
319,332
319,333
318,335
318,338
318,341
318,343
317,344
313,343
313,340
313,339
313,335
314,334
309,333
302,333
302,331
303,326
303,326
309,327
310,327
312,327
314,327
319,328
" /> 
<polygon style="fill-rule:evenodd; " 
points="340,335
344,342
344,346
344,351
344,353
344,354
344,355
341,354
341,356
337,355
337,354
336,354
335,355
335,355
335,355
335,355
331,354
331,351
331,351
331,349
331,349
332,346
332,346
332,345
332,342
332,339
332,338
332,337
332,337
333,337
333,334
333,333
332,332
337,333
340,335
" /> 
<polygon style="fill-rule:evenodd; " 
points="405,339
405,351
404,351
398,351
395,351
390,351
386,351
386,348
386,347
386,346
386,344
386,341
386,338
390,338
397,339
405,339
" /> 
<polygon style="fill-rule:evenodd; " 
points="405,365
403,365
400,365
398,365
395,365
393,365
391,365
388,365
386,365
386,358
386,355
386,353
386,351
390,351
395,351
398,351
404,351
405,351
405,358
405,365
" /> 
<polygon style="fill-rule:evenodd; " 
points="332,339
332,342
332,345
332,346
332,346
331,349
331,349
327,349
324,349
322,348
320,348
317,348
317,344
318,343
318,341
318,338
320,338
332,339
" /> 
<polygon style="fill-rule:evenodd; " 
points="369,341
370,341
373,341
373,342
373,348
373,350
373,351
373,355
373,357
370,356
365,355
365,349
365,346
368,341
369,341
" /> 
<polygon style="fill-rule:evenodd; " 
points="386,338
386,341
386,344
386,346
386,347
386,348
386,351
386,353
386,355
386,358
380,358
379,358
373,357
373,355
373,351
373,350
373,348
373,342
373,341
370,341
369,341
371,338
376,337
386,337
386,338
" /> 
<polygon style="fill-rule:evenodd; " 
points="367,403
371,411
374,416
377,421
380,426
383,434
384,440
379,439
373,438
365,435
365,429
365,426
362,423
362,422
360,419
359,416
358,412
357,409
357,408
357,406
357,406
356,405
358,405
361,406
361,405
362,402
365,400
367,403
" /> 
<polygon style="fill-rule:evenodd; " 
points="406,333
407,332
406,333
405,339
397,339
390,338
386,338
386,337
386,335
386,332
392,332
392,328
397,328
398,328
403,330
401,331
401,332
401,334
406,333
" /> 
<polygon style="fill-rule:evenodd; " 
points="344,355
343,361
340,364
337,368
334,368
334,368
329,367
330,365
330,364
330,363
330,362
330,358
330,357
331,354
335,355
335,355
335,355
335,355
336,354
337,354
337,355
341,356
341,354
344,355
" /> 
</g> 
</svg> 
